<mxfile host="app.diagrams.net" modified="2022-10-19T03:54:41.735Z" agent="5.0 (Windows NT 10.0; Win64; x64) AppleWebKit/537.36 (KHTML, like Gecko) Chrome/106.0.0.0 Safari/537.36" etag="vp3A5Tiz2ZQo_gLkwfhD" version="20.4.1" type="github">
  <diagram name="Page-1" id="e7e014a7-5840-1c2e-5031-d8a46d1fe8dd">
    <mxGraphModel dx="1277" dy="959" grid="1" gridSize="10" guides="1" tooltips="1" connect="1" arrows="1" fold="1" page="1" pageScale="1" pageWidth="1169" pageHeight="1654" math="0" shadow="0">
      <root>
        <mxCell id="0" />
        <mxCell id="1" parent="0" />
        <mxCell id="2" value="Sales Clerk" style="swimlane;whiteSpace=wrap;rounded=0;deletable=0;movable=0;expand=1;collapsible=0;snapToPoint=1;" parent="1" vertex="1">
          <mxGeometry x="158.5" y="127" width="285.5" height="1053" as="geometry" />
        </mxCell>
        <mxCell id="5" value="" style="ellipse;shape=startState;rounded=0;whiteSpace=wrap;fillColor=#1F1F1F;snapToPoint=1;" parent="2" vertex="1">
          <mxGeometry x="125" y="32" width="30" height="30" as="geometry" />
        </mxCell>
        <mxCell id="6" value="" style="edgeStyle=elbowEdgeStyle;elbow=horizontal;verticalAlign=bottom;endArrow=open;endSize=8;endFill=1;rounded=0;exitX=0.5;exitY=1;exitDx=0;exitDy=0;snapToPoint=1;entryX=0.5;entryY=0;entryDx=0;entryDy=0;" parent="2" source="5" target="7" edge="1">
          <mxGeometry x="100" y="40" as="geometry">
            <mxPoint x="115" y="110" as="targetPoint" />
            <mxPoint x="140.5" y="90" as="sourcePoint" />
          </mxGeometry>
        </mxCell>
        <mxCell id="7" value="Select &quot;Sell Property&quot; option" style="rounded=0;whiteSpace=wrap;snapToPoint=1;" parent="2" vertex="1">
          <mxGeometry x="60" y="82" width="160" height="38" as="geometry" />
        </mxCell>
        <mxCell id="bqYrFDz9AfAW0xV19m9E-46" value="Select option" style="whiteSpace=wrap;html=1;rounded=0;snapToPoint=1;" parent="2" vertex="1">
          <mxGeometry x="82.75" y="140" width="120" height="40" as="geometry" />
        </mxCell>
        <mxCell id="VSnS6wqzOySut8PEu_Ir-57" value="" style="rhombus;whiteSpace=wrap;html=1;rounded=0;snapToPoint=1;" parent="2" vertex="1">
          <mxGeometry x="22.5" y="483" width="37.25" height="38" as="geometry" />
        </mxCell>
        <mxCell id="h0bp7gTQh3Y6S4Nnvwro-19" value="Select option" style="whiteSpace=wrap;html=1;rounded=0;snapToPoint=1;" parent="2" vertex="1">
          <mxGeometry x="80" y="413" width="120" height="28" as="geometry" />
        </mxCell>
        <mxCell id="vFMX6gQ4nlif24A59_B4-11" style="edgeStyle=orthogonalEdgeStyle;rounded=0;orthogonalLoop=1;jettySize=auto;html=1;exitX=0.5;exitY=1;exitDx=0;exitDy=0;" edge="1" parent="2" source="vFMX6gQ4nlif24A59_B4-9" target="h0bp7gTQh3Y6S4Nnvwro-19">
          <mxGeometry relative="1" as="geometry" />
        </mxCell>
        <mxCell id="vFMX6gQ4nlif24A59_B4-9" value="Select an offer" style="whiteSpace=wrap;html=1;rounded=0;" vertex="1" parent="2">
          <mxGeometry x="65" y="343" width="150" height="47" as="geometry" />
        </mxCell>
        <mxCell id="3" value="System" style="swimlane;whiteSpace=wrap;rounded=0;deletable=0;movable=0;expand=1;collapsible=0;snapToPoint=1;" parent="1" vertex="1">
          <mxGeometry x="444.5" y="127" width="285.5" height="1053" as="geometry" />
        </mxCell>
        <mxCell id="h0bp7gTQh3Y6S4Nnvwro-7" style="edgeStyle=orthogonalEdgeStyle;rounded=0;orthogonalLoop=1;jettySize=auto;html=1;exitX=0.5;exitY=1;exitDx=0;exitDy=0;entryX=0.5;entryY=0;entryDx=0;entryDy=0;snapToPoint=1;" parent="3" source="bqYrFDz9AfAW0xV19m9E-42" target="bqYrFDz9AfAW0xV19m9E-44" edge="1">
          <mxGeometry relative="1" as="geometry" />
        </mxCell>
        <mxCell id="bqYrFDz9AfAW0xV19m9E-42" value="Display &quot;Sell Property&quot; form" style="whiteSpace=wrap;html=1;rounded=0;snapToPoint=1;" parent="3" vertex="1">
          <mxGeometry x="64.13" y="82" width="157.25" height="38" as="geometry" />
        </mxCell>
        <mxCell id="bqYrFDz9AfAW0xV19m9E-44" value="List all available properties that have offers" style="whiteSpace=wrap;html=1;rounded=0;snapToPoint=1;" parent="3" vertex="1">
          <mxGeometry x="64.13" y="140" width="157.25" height="40" as="geometry" />
        </mxCell>
        <mxCell id="h0bp7gTQh3Y6S4Nnvwro-15" value="[select property]" style="edgeStyle=orthogonalEdgeStyle;rounded=0;orthogonalLoop=1;jettySize=auto;html=1;exitX=0.5;exitY=1;exitDx=0;exitDy=0;entryX=0.5;entryY=0;entryDx=0;entryDy=0;" parent="3" source="bqYrFDz9AfAW0xV19m9E-48" target="VSnS6wqzOySut8PEu_Ir-7" edge="1">
          <mxGeometry x="-0.3846" relative="1" as="geometry">
            <mxPoint as="offset" />
          </mxGeometry>
        </mxCell>
        <mxCell id="bqYrFDz9AfAW0xV19m9E-48" value="" style="rhombus;whiteSpace=wrap;html=1;rounded=0;snapToPoint=1;" parent="3" vertex="1">
          <mxGeometry x="121.37" y="213" width="37.25" height="38" as="geometry" />
        </mxCell>
        <mxCell id="h0bp7gTQh3Y6S4Nnvwro-16" style="edgeStyle=orthogonalEdgeStyle;rounded=0;orthogonalLoop=1;jettySize=auto;html=1;exitX=0.5;exitY=1;exitDx=0;exitDy=0;entryX=0.5;entryY=0;entryDx=0;entryDy=0;" parent="3" source="VSnS6wqzOySut8PEu_Ir-7" target="h0bp7gTQh3Y6S4Nnvwro-9" edge="1">
          <mxGeometry relative="1" as="geometry" />
        </mxCell>
        <mxCell id="VSnS6wqzOySut8PEu_Ir-7" value="Display property details" style="whiteSpace=wrap;html=1;rounded=0;snapToPoint=1;" parent="3" vertex="1">
          <mxGeometry x="64.76" y="290" width="150" height="30" as="geometry" />
        </mxCell>
        <mxCell id="VSnS6wqzOySut8PEu_Ir-62" value="[elect to sell]" style="edgeStyle=orthogonalEdgeStyle;rounded=0;orthogonalLoop=1;jettySize=auto;html=1;exitX=0.5;exitY=1;exitDx=0;exitDy=0;fontFamily=Helvetica;fontSize=12;fontColor=default;snapToPoint=1;entryX=0.5;entryY=0;entryDx=0;entryDy=0;" parent="3" source="VSnS6wqzOySut8PEu_Ir-11" target="h0bp7gTQh3Y6S4Nnvwro-22" edge="1">
          <mxGeometry relative="1" as="geometry">
            <mxPoint x="139.5" y="568" as="targetPoint" />
          </mxGeometry>
        </mxCell>
        <mxCell id="VSnS6wqzOySut8PEu_Ir-11" value="" style="rhombus;whiteSpace=wrap;html=1;rounded=0;snapToPoint=1;" parent="3" vertex="1">
          <mxGeometry x="121.5" y="483" width="37.25" height="38" as="geometry" />
        </mxCell>
        <mxCell id="h0bp7gTQh3Y6S4Nnvwro-9" value="Display list of property&#39;s offers" style="whiteSpace=wrap;html=1;rounded=0;" parent="3" vertex="1">
          <mxGeometry x="64.76" y="343" width="150" height="47" as="geometry" />
        </mxCell>
        <mxCell id="vFMX6gQ4nlif24A59_B4-14" style="edgeStyle=orthogonalEdgeStyle;rounded=0;orthogonalLoop=1;jettySize=auto;html=1;exitX=0.5;exitY=1;exitDx=0;exitDy=0;entryX=0.5;entryY=0;entryDx=0;entryDy=0;" edge="1" parent="3" source="h0bp7gTQh3Y6S4Nnvwro-22" target="vFMX6gQ4nlif24A59_B4-12">
          <mxGeometry relative="1" as="geometry" />
        </mxCell>
        <mxCell id="h0bp7gTQh3Y6S4Nnvwro-22" value="Update property status to sold" style="rounded=0;whiteSpace=wrap;html=1;" parent="3" vertex="1">
          <mxGeometry x="79.76" y="568" width="120" height="47" as="geometry" />
        </mxCell>
        <mxCell id="vFMX6gQ4nlif24A59_B4-15" style="edgeStyle=orthogonalEdgeStyle;rounded=0;orthogonalLoop=1;jettySize=auto;html=1;exitX=0.5;exitY=1;exitDx=0;exitDy=0;entryX=0.5;entryY=0;entryDx=0;entryDy=0;" edge="1" parent="3" source="vFMX6gQ4nlif24A59_B4-12" target="vFMX6gQ4nlif24A59_B4-13">
          <mxGeometry relative="1" as="geometry" />
        </mxCell>
        <mxCell id="vFMX6gQ4nlif24A59_B4-12" value="Update offer status to successful" style="rounded=0;whiteSpace=wrap;html=1;" vertex="1" parent="3">
          <mxGeometry x="79.75999999999999" y="633" width="120" height="47" as="geometry" />
        </mxCell>
        <mxCell id="vFMX6gQ4nlif24A59_B4-13" value="Update non-selected offer statuses to unsuccessful" style="rounded=0;whiteSpace=wrap;html=1;" vertex="1" parent="3">
          <mxGeometry x="80.13" y="703" width="120" height="47" as="geometry" />
        </mxCell>
        <mxCell id="bqYrFDz9AfAW0xV19m9E-43" value="" style="edgeStyle=orthogonalEdgeStyle;rounded=0;orthogonalLoop=1;jettySize=auto;html=1;snapToPoint=1;" parent="1" source="7" target="bqYrFDz9AfAW0xV19m9E-42" edge="1">
          <mxGeometry relative="1" as="geometry" />
        </mxCell>
        <mxCell id="bqYrFDz9AfAW0xV19m9E-47" value="" style="edgeStyle=orthogonalEdgeStyle;rounded=0;orthogonalLoop=1;jettySize=auto;html=1;snapToPoint=1;" parent="1" source="bqYrFDz9AfAW0xV19m9E-44" target="bqYrFDz9AfAW0xV19m9E-46" edge="1">
          <mxGeometry relative="1" as="geometry" />
        </mxCell>
        <mxCell id="bqYrFDz9AfAW0xV19m9E-49" value="" style="edgeStyle=orthogonalEdgeStyle;rounded=0;orthogonalLoop=1;jettySize=auto;html=1;entryX=0.5;entryY=0;entryDx=0;entryDy=0;snapToPoint=1;" parent="1" source="bqYrFDz9AfAW0xV19m9E-46" target="bqYrFDz9AfAW0xV19m9E-48" edge="1">
          <mxGeometry relative="1" as="geometry">
            <Array as="points">
              <mxPoint x="301" y="320" />
              <mxPoint x="585" y="320" />
            </Array>
          </mxGeometry>
        </mxCell>
        <mxCell id="VSnS6wqzOySut8PEu_Ir-52" value="[cancel operation]" style="endArrow=classic;html=1;rounded=0;fontFamily=Helvetica;fontSize=12;fontColor=default;snapToPoint=1;exitX=0;exitY=0.5;exitDx=0;exitDy=0;entryX=1;entryY=0.5;entryDx=0;entryDy=0;" parent="1" source="VSnS6wqzOySut8PEu_Ir-11" target="VSnS6wqzOySut8PEu_Ir-57" edge="1">
          <mxGeometry x="0.4681" width="50" height="50" relative="1" as="geometry">
            <mxPoint x="380" y="990" as="sourcePoint" />
            <mxPoint x="230" y="630" as="targetPoint" />
            <Array as="points" />
            <mxPoint as="offset" />
          </mxGeometry>
        </mxCell>
        <mxCell id="VSnS6wqzOySut8PEu_Ir-59" value="[cancel operation]" style="edgeStyle=orthogonalEdgeStyle;rounded=0;orthogonalLoop=1;jettySize=auto;html=1;exitX=0;exitY=0.5;exitDx=0;exitDy=0;entryX=0.5;entryY=0;entryDx=0;entryDy=0;fontFamily=Helvetica;fontSize=12;fontColor=default;snapToPoint=1;" parent="1" source="bqYrFDz9AfAW0xV19m9E-48" target="VSnS6wqzOySut8PEu_Ir-57" edge="1">
          <mxGeometry relative="1" as="geometry" />
        </mxCell>
        <mxCell id="h0bp7gTQh3Y6S4Nnvwro-21" style="edgeStyle=orthogonalEdgeStyle;rounded=0;orthogonalLoop=1;jettySize=auto;html=1;exitX=0.5;exitY=1;exitDx=0;exitDy=0;entryX=0.5;entryY=0;entryDx=0;entryDy=0;" parent="1" source="h0bp7gTQh3Y6S4Nnvwro-19" target="VSnS6wqzOySut8PEu_Ir-11" edge="1">
          <mxGeometry relative="1" as="geometry" />
        </mxCell>
        <mxCell id="VSnS6wqzOySut8PEu_Ir-60" style="edgeStyle=orthogonalEdgeStyle;rounded=0;orthogonalLoop=1;jettySize=auto;html=1;exitX=0.5;exitY=1;exitDx=0;exitDy=0;fontFamily=Helvetica;fontSize=12;fontColor=default;snapToPoint=1;entryX=0;entryY=0.5;entryDx=0;entryDy=0;" parent="1" source="VSnS6wqzOySut8PEu_Ir-57" target="VSnS6wqzOySut8PEu_Ir-39" edge="1">
          <mxGeometry relative="1" as="geometry">
            <mxPoint x="565.6300000000001" y="958.5" as="targetPoint" />
          </mxGeometry>
        </mxCell>
        <mxCell id="vFMX6gQ4nlif24A59_B4-10" style="edgeStyle=orthogonalEdgeStyle;rounded=0;orthogonalLoop=1;jettySize=auto;html=1;exitX=0;exitY=0.5;exitDx=0;exitDy=0;" edge="1" parent="1" source="h0bp7gTQh3Y6S4Nnvwro-9" target="vFMX6gQ4nlif24A59_B4-9">
          <mxGeometry relative="1" as="geometry" />
        </mxCell>
        <mxCell id="h0bp7gTQh3Y6S4Nnvwro-26" value="Select option" style="whiteSpace=wrap;html=1;rounded=0;snapToPoint=1;" parent="1" vertex="1">
          <mxGeometry x="241.25" y="900" width="120" height="28" as="geometry" />
        </mxCell>
        <mxCell id="VSnS6wqzOySut8PEu_Ir-33" value="Display exit prompt" style="whiteSpace=wrap;html=1;rounded=0;snapToPoint=1;" parent="1" vertex="1">
          <mxGeometry x="524.26" y="900" width="120" height="27.75" as="geometry" />
        </mxCell>
        <mxCell id="mUHFZ_PR1i2iyg2CIxJh-9" style="edgeStyle=orthogonalEdgeStyle;rounded=0;orthogonalLoop=1;jettySize=auto;html=1;exitX=0.5;exitY=1;exitDx=0;exitDy=0;entryX=0.5;entryY=0;entryDx=0;entryDy=0;" parent="1" source="VSnS6wqzOySut8PEu_Ir-39" target="VSnS6wqzOySut8PEu_Ir-41" edge="1">
          <mxGeometry relative="1" as="geometry" />
        </mxCell>
        <mxCell id="VSnS6wqzOySut8PEu_Ir-39" value="Close &quot;Remove &lt;br&gt;Buyer Suburb&quot; &lt;br&gt;form" style="whiteSpace=wrap;html=1;rounded=0;snapToPoint=1;" parent="1" vertex="1">
          <mxGeometry x="524.49" y="1062" width="120" height="51" as="geometry" />
        </mxCell>
        <mxCell id="VSnS6wqzOySut8PEu_Ir-41" value="" style="ellipse;html=1;shape=endState;fillColor=#000000;strokeColor=#ff0000;rounded=0;fontFamily=Helvetica;fontSize=12;fontColor=default;snapToPoint=1;" parent="1" vertex="1">
          <mxGeometry x="569.26" y="1136" width="30" height="30" as="geometry" />
        </mxCell>
        <mxCell id="mUHFZ_PR1i2iyg2CIxJh-8" value="[exit]" style="edgeStyle=orthogonalEdgeStyle;rounded=0;orthogonalLoop=1;jettySize=auto;html=1;exitX=0.5;exitY=1;exitDx=0;exitDy=0;entryX=0.5;entryY=0;entryDx=0;entryDy=0;" parent="1" source="h0bp7gTQh3Y6S4Nnvwro-28" target="VSnS6wqzOySut8PEu_Ir-39" edge="1">
          <mxGeometry x="-0.3684" relative="1" as="geometry">
            <mxPoint as="offset" />
          </mxGeometry>
        </mxCell>
        <mxCell id="h0bp7gTQh3Y6S4Nnvwro-28" value="" style="rhombus;whiteSpace=wrap;html=1;rounded=0;snapToPoint=1;" parent="1" vertex="1">
          <mxGeometry x="565.63" y="986" width="37.25" height="38" as="geometry" />
        </mxCell>
        <mxCell id="h0bp7gTQh3Y6S4Nnvwro-27" style="edgeStyle=orthogonalEdgeStyle;rounded=0;orthogonalLoop=1;jettySize=auto;html=1;exitX=0;exitY=0.5;exitDx=0;exitDy=0;entryX=1;entryY=0.5;entryDx=0;entryDy=0;" parent="1" source="VSnS6wqzOySut8PEu_Ir-33" target="h0bp7gTQh3Y6S4Nnvwro-26" edge="1">
          <mxGeometry relative="1" as="geometry" />
        </mxCell>
        <mxCell id="VSnS6wqzOySut8PEu_Ir-53" value="[remove another &lt;br&gt;suburb]" style="edgeStyle=orthogonalEdgeStyle;rounded=0;orthogonalLoop=1;jettySize=auto;html=1;exitX=1;exitY=0.5;exitDx=0;exitDy=0;fontFamily=Helvetica;fontSize=12;fontColor=default;snapToPoint=1;entryX=1;entryY=0.5;entryDx=0;entryDy=0;" parent="1" source="h0bp7gTQh3Y6S4Nnvwro-28" target="bqYrFDz9AfAW0xV19m9E-42" edge="1">
          <mxGeometry x="-0.8772" relative="1" as="geometry">
            <mxPoint x="710" y="200" as="targetPoint" />
            <Array as="points">
              <mxPoint x="711" y="1005" />
              <mxPoint x="711" y="228" />
            </Array>
            <mxPoint as="offset" />
          </mxGeometry>
        </mxCell>
        <mxCell id="h0bp7gTQh3Y6S4Nnvwro-29" style="edgeStyle=orthogonalEdgeStyle;rounded=0;orthogonalLoop=1;jettySize=auto;html=1;exitX=0.5;exitY=1;exitDx=0;exitDy=0;entryX=0.5;entryY=0;entryDx=0;entryDy=0;" parent="1" source="h0bp7gTQh3Y6S4Nnvwro-26" target="h0bp7gTQh3Y6S4Nnvwro-28" edge="1">
          <mxGeometry relative="1" as="geometry" />
        </mxCell>
        <mxCell id="vFMX6gQ4nlif24A59_B4-16" style="edgeStyle=orthogonalEdgeStyle;rounded=0;orthogonalLoop=1;jettySize=auto;html=1;exitX=0.5;exitY=1;exitDx=0;exitDy=0;entryX=0.5;entryY=0;entryDx=0;entryDy=0;" edge="1" parent="1" source="vFMX6gQ4nlif24A59_B4-13" target="VSnS6wqzOySut8PEu_Ir-33">
          <mxGeometry relative="1" as="geometry" />
        </mxCell>
      </root>
    </mxGraphModel>
  </diagram>
</mxfile>
